<svg xmlns="http://www.w3.org/2000/svg" viewBox="0 0 1906.8 331.46"><defs><style>.cls-1{fill:#03983c;}.cls-2{fill:#2c2782;}.cls-3{fill:#f3080f;}.cls-4{fill:#f3050c;}.cls-5{fill:#f4141b;}.cls-6{fill:#f98083;}.cls-7{fill:#2f2a84;}.cls-8{fill:#2e2984;}.cls-9{fill:#353088;}.cls-10{fill:#fdfdfd;}</style></defs><title>Ресурс 1</title><g id="Слой_2" data-name="Слой 2"><g id="Слой_1-2" data-name="Слой 1"><path class="cls-1" d="M170.57,66.46c-10.39,5.67-19.64,13.09-29.76,19.15-10.27,6.13-8.81,6.11-9.5-5-1.26-20.43-.31-40.9.2-61.35.05-1.95.52-4-1.07-6.21-3.4,6.44-3.57,13.28-4.31,19.88-1.76,15.7-2.66,31.48-2.88,47.28-.06,4-1.53,3.4-4,2.22-6.52-3.07-12.23-7.37-18-11.59-3.09-2.25-6.14-4.57-9.31-6.71-1.12-.76-2.68-2.41-3.87-.88-1,1.32.62,2.7,1.56,3.79a88,88,0,0,0,12.53,11.41c5.26,4.08,10.38,8.4,16,12,4,2.53,5.66,5.45,5.54,10.09-.25,9.63-.17,19.28-.13,28.92,0,3.09-1,3.58-3.79,2.36-12.72-5.59-24.14-13.31-35.41-21.3C79,106.72,73.74,102.91,68.4,99.22c-1.14-.79-2.68-2.41-3.92-1.14-1.49,1.53.25,3.09,1.27,4.25a71.49,71.49,0,0,0,6.61,6.76c14.83,12.94,31,24.06,47.63,34.53,3.41,2.15,4.78,4.59,4.85,8.38.19,9.48.41,19,.93,28.42.23,4.15-.79,4.84-4.6,3.19-14.5-6.3-27.22-15.27-39.23-25.38-2.1-1.76-3.92-4-7.32-4.89.31,3.9,2.75,6.2,5,8.43a205.35,205.35,0,0,0,42.12,31.76c3,1.74,4.18,3.4,4.12,6.86-.18,12.26,0,12.27-12.46,12.27-12,0-24-.19-36,.1-3.93.1-4.62-1.16-4.54-4.73.24-10.47-.11-21,.19-31.43.11-4-.78-5.33-5.09-5.28-20.15.25-40.31.11-60.46.11-7,0-7,0-6.25-7.14,2.76-24.86,11.48-47.41,27.09-67C55.65,63,87.3,33.15,122.07,6.52c3.13-2.4,6.6-4.36,9.92-6.52h4c27.13,17.36,49.51,40.15,71.95,62.84,9.6,9.71,18.39,20.15,27.36,30.44,16.18,18.54,24.32,40.51,28.65,64.23.8,4.38,3.6,10.14,1.28,12.9-2.59,3.08-8.73.94-13.31,1-18,.13-36,.17-54,0-3.85-.05-4.75,1.12-4.67,4.78.23,11,0,22,.14,32.93,0,2.79-.69,3.69-3.58,3.67q-25-.19-50,0c-2.55,0-3.81-.63-3.41-3.31a1.67,1.67,0,0,0,0-.5c-1.11-7.22,1.19-12,7.86-16.23a240.17,240.17,0,0,0,36-27.64c1.9-1.78,4.21-3.32,4.89-6.11.21-.22.64-.58.6-.63-.43-.63-.78-.35-1.08.16-5,1.64-9,5-13.31,7.71-10,6.34-19.78,12.9-29.69,19.32-1.65,1.07-3.25,2.34-5.77,2.7-1.38-6.71-1.25-13.52-1.68-20.25-.4-6.12-1.88-13,.29-18.24s9.68-6.95,14.8-10.26c11.88-7.68,23.76-15.34,34.56-24.53,4.28-3.65,8.46-7.41,10.69-13.21-1.6,1-3.22,1.88-4.79,2.88-16.12,10.28-31.69,21.42-48.19,31.1-7.68,4.51-7.94,4.39-8.4-4.53-.47-9.13-.55-18.29-1-27.42a6.18,6.18,0,0,1,3.14-6.11,245.24,245.24,0,0,0,28.91-22.13c2.67-2.45,5.6-4.75,7-8.29l.39-1Z"/><path class="cls-2" d="M0,191.69c17,0,34,.1,51-.08,3.35,0,4.13,1,4.07,4.16-.18,11.48,0,23-.15,34.44,0,3.32.57,4.51,4.25,4.5q73.25-.19,146.48,0c3.44,0,4.51-.74,4.43-4.32-.24-11.64,0-23.3-.17-34.94-.06-3.16.9-3.85,3.91-3.82,16.17.15,32.33.18,48.49,0,3.31,0,3.73,1.15,3.73,4-.08,43.26-.14,86.52.06,129.78,0,4.55-2.22,4.09-5.13,4.09q-130.47,0-261,0Z"/><path class="cls-3" d="M426,331.46q-7-18-14-36.07c8.29-1.76,8.28-1.76,11.24,5.81,2.88,7.34,5.79,14.66,9.08,23,3.23-9.19,6.2-17.22,8.84-25.36,1-3.17,2.5-4.4,6-4.28,3.22.11,5,.68,6.06,4.1,2.64,8.33,5.81,16.48,9.14,25.76,3.21-8.43,6-15.78,8.82-23.14,2.69-7.1,2.68-7.1,11.33-6.18-4.85,12.23-9,24.58-14.47,36.39H456c-2.78-7.93-5.56-15.86-8.65-24.69C444,315.53,441,323.5,438,331.46Z"/><path class="cls-3" d="M1685.83,331.46c.05-10.81.24-21.63.06-32.43-.06-3.53,1-4.17,4.45-4.52,7.37-.75,12.35,1.5,16.4,8,4.65,7.41,10.49,14.08,16.22,21.61,1.51-3.91.71-7.32.81-10.62.15-5,.29-10,0-15-.25-3.67,1.47-4,4.39-3.89,2.59.12,4.78-.3,4.66,3.72-.32,10.63-.18,21.29-.22,31.93l-14.85.33-21.76-28.41c-1.1,7.5-1,14.56-1.13,21.61,0,2.57.73,5.29-1,7.66Z"/><path class="cls-3" d="M1269.87,331.46c.05-10.81.24-21.63.06-32.43-.06-3.53,1-4.17,4.45-4.52,7.37-.75,12.35,1.5,16.41,8,4.64,7.41,10.48,14.08,16.21,21.61,1.51-3.91.71-7.32.81-10.62.15-5,.3-10,0-15-.25-3.67,1.46-4,4.38-3.89,2.6.12,4.79-.3,4.66,3.72-.32,10.63-.18,21.29-.22,31.93l-14.84.33L1280,302.19c-1.1,7.5-1,14.56-1.13,21.61,0,2.57.73,5.29-1,7.66Z"/><path class="cls-3" d="M891.91,331.46c.05-10.81.24-21.63.06-32.43-.06-3.53,1-4.17,4.45-4.52,7.37-.75,12.35,1.5,16.41,8,4.64,7.41,10.48,14.08,16.21,21.61,1.51-3.91.71-7.32.81-10.62.15-5,.3-10,0-15-.26-3.67,1.46-4,4.38-3.89,2.6.12,4.78-.3,4.66,3.72-.32,10.63-.18,21.29-.22,31.93l-14.84.33L902,302.19c-1.1,7.5-1,14.56-1.13,21.61,0,2.57.73,5.29-1,7.66Z"/><path class="cls-3" d="M318,331.46c0-10.81.24-21.63.06-32.43-.06-3.53,1.05-4.17,4.45-4.52,7.37-.75,12.35,1.5,16.4,8,4.65,7.41,10.49,14.08,16.22,21.61,1.51-3.91.71-7.32.81-10.62.15-5,.29-10-.05-15-.25-3.67,1.47-4,4.39-3.89,2.6.12,4.78-.3,4.66,3.72-.32,10.63-.18,21.29-.22,31.93l-14.84.33-21.77-28.41c-1.1,7.5-1,14.56-1.13,21.61,0,2.57.73,5.29-1,7.66Z"/><path class="cls-3" d="M595.94,331.46c0-10.81.24-21.63.06-32.43-.06-3.53,1-4.17,4.45-4.52,7.37-.75,12.35,1.5,16.41,8,4.64,7.41,10.48,14.08,16.21,21.61,1.51-3.91.71-7.32.81-10.62.15-5,.3-10,0-15-.25-3.67,1.46-4,4.38-3.89,2.6.12,4.78-.3,4.66,3.72-.32,10.63-.18,21.29-.22,31.93l-14.84.33-21.77-28.41c-1.1,7.5-1,14.56-1.13,21.61,0,2.57.73,5.29-1,7.66Z"/><path class="cls-4" d="M1365.67,330.52c0-10.64.16-21.29-.08-31.92-.08-3.55,1.35-4.05,4.36-4,7.49.17,15,0,22.48.08,5,.05,10,.58,12.16,5.93,2.3,5.74,2.29,11.41-3.4,16.25,2.75,1.47,5.47,2.94,5.46,6.31,0,2.77.65,5.63-.79,8.27h-8c0-1,0-2,0-3,0-7.32-.85-8.15-8.42-8.18a93.6,93.6,0,0,1-9.48-.07c-4.47-.5-6.56.91-5.69,5.61.78,4.22-1.1,5.76-5.18,5.08C1368,330.72,1366.82,330.64,1365.67,330.52Zm18.79-17.46v0c2.67,0,5.34.06,8,0,3.72-.1,4.63-2.43,4.63-5.7s-1.14-5.25-4.5-5.32c-5.16-.12-10.32,0-15.49-.05-1.42,0-2.43.17-2.83,2-1.55,7.06,0,9.13,7.2,9.13Z"/><path class="cls-4" d="M691.74,330.52c0-10.64.16-21.29-.08-31.92-.08-3.55,1.35-4.05,4.36-4,7.49.17,15,0,22.48.08,5,.05,10,.58,12.16,5.93,2.3,5.74,2.29,11.41-3.41,16.25,2.76,1.47,5.48,2.94,5.47,6.31,0,2.77.65,5.63-.8,8.27h-8c0-1,0-2,0-3,0-7.32-.85-8.15-8.42-8.18a93.6,93.6,0,0,1-9.48-.07c-4.47-.5-6.56.91-5.69,5.61.78,4.22-1.1,5.76-5.18,5.08C694,330.72,692.89,330.64,691.74,330.52Zm18.87-17.47h7.5c3.93,0,5.07-2.24,5-5.81s-1.57-5.27-5.07-5.28c-4,0-8,.27-12-.09-4.47-.41-5.92.92-5.93,5.64s1.55,6.2,6,5.58A33.6,33.6,0,0,1,710.61,313.05Z"/><path class="cls-4" d="M735.92,331.46a2.7,2.7,0,0,1,.11-3c5.52-10.17,11-20.37,16.27-30.66,1.23-2.4,2.73-2.93,5.32-3.3,7-1,10.77,1.58,13.52,8,3.48,8.19,8.09,15.9,12.26,23.79.86,1.62,1.83,3.15,1.52,5.1h-9c-2.28-7.72-7-10.6-15.37-9.82-6.61.62-13-.28-15.08,8-.18.69-1,1.2-1.55,1.79Zm24.56-30.34a50.61,50.61,0,0,0-2.6,5c-1.13,3-5.22,6.37-3.34,8.56,1.51,1.76,6.49.51,9.93.68,2.47.13,2.9-.71,1.75-2.86C764.35,309,762.65,305.45,760.48,301.12Z"/><path class="cls-4" d="M1569.84,331.46a2.68,2.68,0,0,1,.1-3c5.53-10.17,11-20.37,16.28-30.66,1.23-2.4,2.73-2.93,5.32-3.3,7-1,10.76,1.58,13.51,8,3.48,8.19,8.09,15.9,12.27,23.79.85,1.62,1.83,3.15,1.51,5.1h-9c-2.28-7.72-7-10.6-15.37-9.82-6.6.62-13-.28-15.08,8-.17.69-1,1.2-1.54,1.79Zm24.57-30.31a46.37,46.37,0,0,0-2.56,4.85c-1.17,3-5.16,6.35-3.47,8.61s6.46.46,9.86.74c3,.26,2.86-1.07,1.73-3.17C1598.19,308.84,1596.55,305.42,1594.41,301.15Z"/><path class="cls-5" d="M1010.9,331.46c-.08-11.3-.13-22.6-.26-33.9,0-2,.45-3,2.76-3,10.33.11,20.66.14,31,0,3,0,3.07,1.49,3.15,3.72.09,2.62-.46,3.95-3.53,3.87-7-.2-14,0-21-.1-2.44,0-3.6.49-3.61,3.27s.94,3.38,3.48,3.32c6.33-.15,12.66,0,19-.07,2.77,0,5.06-.41,5,3.87,0,4.57-2.8,3.58-5.28,3.6-6.16.05-12.33.14-18.49,0-2.79-.08-4,.76-3.7,3.64.38,3.92-.5,7.89.44,11.79Z"/><path class="cls-3" d="M1633.83,331.46l-16.42-31.72c-.75-1.45-1.48-2.91-2.25-4.43,9-1.61,9-1.61,13,6.06,3.89,7.45,7.8,14.87,12.15,23.15,4.27-8.08,8.55-15.16,11.82-22.68,2.66-6.15,6.34-8.8,13.51-6.61-6.56,12-12.55,24.47-19.78,36.23Z"/><path class="cls-5" d="M797.92,331.46c.91-8.9.15-17.83.41-26.74,0-1.92-.76-2.68-2.65-2.62-2.66.07-5.34-.14-8,0-3,.2-4.55-.31-4.49-3.95,0-3.48,1.66-3.62,4.33-3.6,10.32.11,20.64.14,31,0,2.91,0,4.12.58,4.13,3.8s-1.32,3.76-4.16,3.78c-11.32.12-11.29.2-11.32,11.38,0,6-.15,11.95-.22,17.92Z"/><path class="cls-3" d="M1475.85,331.46c1.08-7,1.09-13.43-4.34-19.21-4.81-5.12-8.71-11.08-13.21-16.93,6.83-1.78,11.69-.83,14.87,5.57,1.82,3.66,4.72,6.78,7.28,10.33a38.24,38.24,0,0,0,7.74-10.35c3.31-6.32,8.17-7.28,15-5.64-4.18,5.43-7.66,11.13-12.28,15.69-6,6-6.24,13.06-6.07,20.54Z"/><path class="cls-3" d="M827.91,331.46c.05-10.81.25-21.63.07-32.44-.06-3.52,1-4.52,4.46-4.47,3.24.05,4.7.51,4.58,4.27-.28,9.31-.11,18.63-.07,27.95,0,1.66,0,3.28-1,4.69Z"/><path class="cls-3" d="M1669.83,331.46c.05-10.81.24-21.63.06-32.44-.06-3.51,1-4.52,4.46-4.47,3.25.05,4.7.51,4.59,4.27-.29,9.31-.12,18.63-.08,27.95,0,1.66,0,3.28-1,4.69Z"/><path class="cls-6" d="M1906.8,71.88a1.21,1.21,0,0,1-.66-.52q.06-14,.14-28.1a.37.37,0,0,1,.52-.33Z"/><path class="cls-7" d="M1119.72,140.65c9.59,3.73,16.84,9,18.84,19.38a59,59,0,0,1-1,28.15c-3.91,13.35-14.47,20.81-31,22.5-9.48,1-19,.81-28.45.81-27.5,0-55-.07-82.49.1-3.74,0-4.73-1-4.72-4.71q.21-62.4,0-124.79c0-3.59.7-4.87,4.6-4.85,32.16.16,64.32,0,96.49.14a70.5,70.5,0,0,1,21.16,3.1c14,4.44,21,13.63,21.5,28.33a83.8,83.8,0,0,1-.93,14.42C1132.62,131.7,1128,137.44,1119.72,140.65Zm-58.83,14.94c-11,0-22,.1-33-.07-3.14-.05-4.37.65-4.24,4.06.26,7.31.27,14.65,0,22-.13,3.53.93,4.43,4.42,4.4,20-.17,40-.06,60-.1a43.43,43.43,0,0,0,11.41-1.1c2.34-.64,4.52-1.54,5.56-3.82a23.62,23.62,0,0,0,.42-19.84c-2.41-5.44-8.4-5.37-13.56-5.44C1081.56,155.49,1071.22,155.59,1060.89,155.59Zm-1.76-52.75c-10.33,0-20.66.14-31-.08-3.37-.07-4.68.61-4.5,4.28.32,6.64.31,13.32,0,20-.18,3.74.9,4.75,4.68,4.71,19.16-.2,38.32-.09,57.48-.11a30.13,30.13,0,0,0,5.46-.36c7.81-1.43,11.54-7.59,10.71-17.51-.59-7.12-4.91-10.84-12.86-10.88C1079.12,102.8,1069.12,102.84,1059.13,102.84Z"/><path class="cls-1" d="M626.1,144.21c0-20.8.07-41.59-.07-62.39,0-3.37.75-4.6,4.36-4.55q23.24.27,46.48,0c2.91,0,4.54,1.19,6.15,3.31q37.22,48.83,74.5,97.57c.91,1.19,1.86,2.35,2.72,3.57,1.18,1.64,2.31,3.53,4.73,2.69s1.37-3.11,1.37-4.72c.07-31.94,0-63.89.07-95.83,0-7.43-.93-6.45,6.75-6.5,7.33,0,14.66.06,22-.06,2.56,0,3.84.34,3.84,3.45q-.15,63.63,0,127.26c0,3-1,3.56-3.74,3.54-16-.11-32-.18-48,0-3.27,0-4.75-1.6-6.38-3.77Q704,158.76,667.06,109.74c-.7-.93-1.49-1.81-2.09-2.8-1.13-1.9-2.65-3.14-4.9-2.45s-1.25,2.82-1.25,4.28c-.08,18.47-.05,36.93-.05,55.4,0,14.31-.11,28.61.08,42.92,0,3.45-.85,4.6-4.42,4.48q-12-.39-24,0c-3.57.12-4.44-1-4.42-4.48C626.18,186.13,626.1,165.17,626.1,144.21Z"/><path class="cls-7" d="M1682.82,144.37c0-20.8.1-41.59-.09-62.38,0-3.65.76-4.77,4.61-4.75,34.15.16,68.31.07,102.46.11a70.89,70.89,0,0,1,15.35,1.73c16.87,3.8,26.36,14.75,28.11,31.46,2.42,23,3.08,46.18-.47,69.1-3,19.2-14.32,29-33.66,31-5.62.57-11.29.85-16.94.87-31.49.08-63,0-94.46.12-3.79,0-5.06-.76-5-4.84C1683,186,1682.82,165.16,1682.82,144.37Zm32.55.18c0,12,0,23.94,0,35.9,0,2.3-.14,4.21,3.24,4.13,21.29-.48,42.61.87,63.87-.8,14.18-1.12,19.41-6.93,19.5-21.15.07-11.64,0-23.27,0-34.91,0-15.56-5.65-22.32-21.2-22.86-20.78-.73-41.59-.33-62.39-.52-3,0-3,1.66-3,3.82C1715.39,120.29,1715.37,132.42,1715.37,144.55Z"/><path class="cls-7" d="M1647.89,159.34c3.12,1.46,6.31,2.79,9.36,4.4,7.26,3.85,11,10,11.09,18.17.12,8.65-.06,17.3.08,25.94,0,2.78-.8,3.77-3.69,3.71-8.49-.17-17-.2-25.48,0-3.08.07-3.54-1.2-3.47-3.82.15-6,.09-12,0-18-.08-9.38-4.56-15-13.64-17a45,45,0,0,0-9.9-1.11c-19.66.05-39.31.12-59-.06-3.73,0-5.16.7-5,4.81.33,10.3,0,20.62.17,30.93.06,3.24-.89,4.29-4.23,4.2-8.32-.24-16.65-.17-25,0-2.56,0-3.45-.64-3.44-3.33q.11-63.87,0-127.73c0-4,2.43-3.14,4.6-3.14q41,0,82,0c8.49,0,17-.28,25.46.38,22.67,1.77,35.25,13.66,37.86,36.2a80.22,80.22,0,0,1,.08,17.93,33.18,33.18,0,0,1-14,24.26c-1.21.87-2.39,1.79-3.57,2.7C1648,158.91,1648,159.12,1647.89,159.34Zm-63.05-55c-10.5,0-21,.16-31.48-.08-3.81-.09-5.19.83-5.07,4.9.29,10.13.29,20.29,0,30.42-.12,4,.79,5.32,5.1,5.26,19.48-.26,39-.11,58.45-.11,17.6,0,22.18-4.68,21.82-22.31,0-.83,0-1.67-.11-2.49-1.28-11.35-5.74-15.45-17.24-15.56C1605.82,104.29,1595.33,104.37,1584.84,104.37Z"/><path class="cls-8" d="M1235.3,75.74c15.13.73,30.3-.87,45.4,1.09,19.19,2.5,30,12.58,32,31.76a367.76,367.76,0,0,1,.19,69.2c-1.88,21.3-11.92,31.12-33.27,32.63a605.93,605.93,0,0,1-87.32,0c-24-1.76-35.22-14.94-35.8-41.17-.42-18.6-.65-37.23.31-55.84a62.41,62.41,0,0,1,2.45-13.71c4.26-15.2,15.92-20.78,30.16-22.79C1204.65,74.75,1220,76.46,1235.3,75.74Zm2.06,27.1h-27.49c-.5,0-1,.07-1.49.11-13.29,1-18.81,5.83-19.27,18.65-.55,15.11-.49,30.26,0,45.37.37,11.11,5.33,16,16.45,16.79a418.94,418.94,0,0,0,60.85-.14c9.54-.75,13.83-5.14,14.39-14.64a410.12,410.12,0,0,0,0-49.83c-.6-9.44-4.8-13.69-14-15.42C1256.33,101.79,1245.81,103.42,1237.36,102.84Z"/><path class="cls-1" d="M901.94,76c8.79.45,23.3-1.22,37.73.68,21.41,2.82,31.15,11,33.57,32.23a320.6,320.6,0,0,1,0,70.68c-2.21,20.39-12.46,29.4-33.41,30.84a610.34,610.34,0,0,1-86.8,0c-23.05-1.7-34.63-13.71-35.76-37.56-1-21.05-1.49-42.21.57-63.27,2-20.1,12.31-30.32,32.47-32.72a64.81,64.81,0,0,1,7.44-.81C870.62,76,883.44,76,901.94,76Zm-6.66,26.68c-9.87.68-20.23-.85-30.49.9-10.08,1.71-14.25,6.07-14.86,16.3a434.64,434.64,0,0,0-.09,47.34c.54,10.88,5.17,15.68,16.11,16.48a422.44,422.44,0,0,0,59.85,0c10.86-.75,15.28-4.69,15.73-15.51.66-15.93.67-31.93,0-47.86-.47-11.23-4.76-15.17-15.91-16.91C915.71,101.92,905.68,103.27,895.28,102.71Z"/><path class="cls-1" d="M537.25,211.49c-21.33,0-42.66-.08-64,.09-3.53,0-4.41-1-4.4-4.42q.18-62.9,0-125.77c0-3.4,1-4.11,4.21-4.11q64.47.15,129,0c3.45,0,4.69.87,4.5,4.44a130.75,130.75,0,0,0,0,16c.28,4.06-.79,5.3-5.09,5.27-31.65-.2-63.31,0-95-.22-4.27,0-5.33,1.16-5.11,5.24a177.92,177.92,0,0,1,0,19.46c-.2,3.86,1.13,4.63,4.76,4.61,30.49-.14,61,0,91.47-.19,4.41,0,5.83,1,5.42,5.44a90.35,90.35,0,0,0,0,14c.23,3.5-.86,4.46-4.39,4.43-19.33-.18-38.65-.09-58-.09-11.66,0-23.33.1-35-.06-3.15-.05-4.37.69-4.25,4.09.25,7.31.27,14.64,0,21.95-.13,3.57,1.05,4.39,4.48,4.38,31.65-.13,63.31,0,95-.19,4.61,0,6.06,1.18,5.72,5.75a130.75,130.75,0,0,0,0,16c.16,3.38-1.12,4.12-4.3,4.1C580.57,211.43,558.91,211.49,537.25,211.49Z"/><path class="cls-8" d="M1509.21,211.49c-11.5,0-23.12-.09-34.73.07-2.72,0-3.28-1.71-4.17-3.43-4.72-9.15-9.53-18.24-14.06-27.48-1.15-2.33-2.48-3-5-3q-36.22.14-72.44,0c-2.78,0-4.11,1-5.29,3.32-4.5,9.07-9.24,18-13.82,27-1.12,2.2-2.28,3.63-5.21,3.57q-15.24-.32-30.48,0c-4,.07-3.6-1.25-2.14-4q33.9-63.45,67.65-127c1.27-2.39,2.66-3.34,5.37-3.32q20.49.18,41,0a4.89,4.89,0,0,1,5,3q33.75,64.1,67.65,128.11C1509,209.26,1509.76,210.09,1509.21,211.49Zm-120.74-59.28c16.73,0,32.35-.14,48,.09,4.84.07,4.71-1.24,2.77-4.91-6.83-12.89-13.37-25.94-20.09-38.89-1-2-1.38-5.38-3.62-5.4s-2.69,3.41-3.75,5.38C1404.07,122.75,1396.51,137.08,1388.47,152.21Z"/><path class="cls-1" d="M315.8,144.28c0-20.78.1-41.57-.09-62.35,0-3.79,1-4.69,4.72-4.67,30,.15,59.94.07,89.91.11a73.47,73.47,0,0,1,15.84,1.78c14.92,3.27,23.81,12.47,26.71,27.39a91.57,91.57,0,0,1,.07,35.15c-3.27,17-13.23,26.33-30.38,29.07-8.95,1.43-17.93,1.07-26.9,1.11-14.32.06-28.64.19-43-.09-4.07-.08-4.94,1.21-4.84,5,.25,10.3,0,20.62.16,30.92.06,3.12-.88,3.94-3.94,3.86-8-.21-16-.25-24,0-3.55.12-4.43-1-4.41-4.45C315.88,186.17,315.8,165.22,315.8,144.28Zm62.52.65v-.18c9.16,0,18.32.28,27.46-.08,10-.4,15.18-5.21,16-15,1.38-17.31-1.88-25.73-22.17-25.38-15.81.27-31.62.12-47.43,0-3.11,0-4.32.59-4.25,4q.35,16.44,0,32.9c-.06,3.25,1.07,3.82,4,3.76C360.68,144.82,369.5,144.93,378.32,144.93Z"/><path class="cls-7" d="M1727.25,264.64c3.93-9.46,7.89-18.53,11.44-27.76,1.25-3.25,2.68-4.89,6.41-4.51,4.27.44,10-1.33,12.55.84,3,2.55.87,8.44,1,12.86.17,7.65-.2,15.32.14,23,.23,5-3.1,3.45-5.6,3.7-2.8.28-4.74,0-4.42-3.78.37-4.63.09-9.31.09-14V241c-2.5-.36-2.26,1.81-2.73,2.9-3.6,8.21-7.13,16.45-10.43,24.78-1.21,3-2.77,4.24-6.23,4.15-9.26-.24-9.27,0-13-8.77q-5-11.74-10.06-23.47l-1.36.22v9.62c0,5.49-.36,11,.1,16.46.42,4.84-1,6.4-5.93,6-3-.26-4-.88-4-4,.18-10.81.21-21.63,0-32.44-.07-3.45,1.2-4.06,4.31-4.07,13.72-.06,13.71-.15,18.94,12.5q3.9,9.42,7.83,18.84C1726.35,263.86,1726.52,264,1727.25,264.64Z"/><path class="cls-7" d="M1223.72,241c0,9.26-.27,18.53.11,27.78.19,4.72-2.59,3.85-5.34,4-3,.19-4.85,0-4.73-4,.32-10.8.21-21.61,0-32.41,0-3,.6-4,3.8-4,12.34-.07,12.32-.2,19.8,9.75q7.49,10,15.07,19.86c.73,1,1.08,2.51,3.4,2.41,0-9.06.21-18.11-.1-27.15-.14-3.95,1-5,4.92-4.91,3.58.11,5.28.54,5.14,4.81-.35,10.63-.2,21.28-.06,31.91,0,2.74-.66,4.14-3.59,3.69a1.68,1.68,0,0,0-.5,0c-9,1.61-15.18-1.39-20-9.53S1230.61,248,1225,240.48Z"/><path class="cls-8" d="M651.4,264.23c0-9.1.29-18.2-.12-27.28-.21-4.6,2.06-4.38,5.34-4.61,3.94-.28,4.64,1.21,4.56,4.77-.23,10.47-.17,20.94,0,31.4,0,3-.61,3.93-4,4.39-9.12,1.27-15.14-1.79-20-9.73s-11.1-15.19-16.63-22.6c-2.22.66-1.47,2.09-1.48,3.06-.06,8.64-.21,17.29,0,25.92.11,3.95-2.36,3.31-4.54,3.12s-5.31,1.56-5.27-2.93c.11-11.47.07-22.93,0-34.4,0-2.09.67-3,2.87-2.92a89.62,89.62,0,0,0,10,0c2.69-.2,4.24.93,5.75,3,6.1,8.29,12.34,16.49,18.55,24.71,1.17,1.54,2.41,3,3.63,4.54Z"/><path class="cls-7" d="M1155.6,272.56c-4.33,0-8.67.27-13-.06-7.05-.55-10.57-4.21-10.82-11.23-.21-6.14-.25-12.31.11-18.44.38-6.68,3.2-9.58,9.91-10.28a137.89,137.89,0,0,1,26.41-.06c6.86.61,10,3.62,10.41,10.45a149.82,149.82,0,0,1,0,19.42c-.41,6.73-3.77,9.64-10.59,10.22-.49.05-1,.1-1.49.11h-11Zm-.13-7.83c2.5,0,5,0,7.49,0,4.08,0,6.21-1.75,6.1-6s-.08-8.31,0-12.47c0-3.91-2-5.88-5.71-6s-7.65-.13-11.48-.13c-9.68,0-10.49.82-10.5,10.5C1141.33,264.74,1141.33,264.74,1155.47,264.73Z"/><path class="cls-7" d="M1483.47,272.61c-4.16,0-8.33,0-12.49,0-2.73,0-5.4-.68-7.3-2.7-2.1-2.21-3.48-5-2.32-8.06.47-1.25,8.49-.4,9.61,1a6.09,6.09,0,0,0,5.13,2.53c5.16,0,10.32,0,15.48,0,3.15,0,5.57-1.07,5.7-4.79.14-3.92-2.49-4.72-5.55-4.79-6.49-.14-13,.07-19.47-.23-7.55-.36-10.27-3.45-10.41-11.07-.14-7.27,2.9-11.33,10-11.72,8.46-.47,17-.21,25.45-.09a9.42,9.42,0,0,1,7.13,3.11c1.89,2.15,3.44,4.69,2,7.57-.7,1.42-8.11.18-9.43-1.36-.1-.11-.08-.34-.18-.45-2.08-2.31-21.93-2.68-24.07-.44-1.31,1.37-1.22,3.08-.82,4.7.53,2.21,2.46,2.56,4.32,2.58,6.16.07,12.32,0,18.48.05,9.71.09,12.23,2.46,12.31,11.44s-3.39,12.66-12.55,12.83c-3.67.07-7.33,0-11,0Z"/><path class="cls-7" d="M1816.73,272.63c-4.16,0-8.32,0-12.48,0a10.93,10.93,0,0,1-7-2.21,8.5,8.5,0,0,1-3.12-8.43c.26-1.38,8.55-.6,9.94,1.06a6.3,6.3,0,0,0,5.22,2.36c4.83,0,9.66,0,14.48,0,3.46,0,6.46-.65,6.48-5s-3.14-4.54-6.23-4.6c-6.16-.12-12.33.07-18.48-.2-7.73-.35-10.48-3.28-10.71-10.79s2.89-11.66,10.17-12c8.46-.44,17-.36,25.45,0,5.38.22,8.75,3.64,9.39,8.06.3,2.07-.11,3.31-2.48,3-2.83-.42-6.5,1.6-8-2.76-.16-.45-1.08-.85-1.68-.9a116.24,116.24,0,0,0-19.92,0c-2.32.21-3.1,2.15-3,4.44.08,2.84,1.87,3.8,4.24,3.84,6.33.1,12.66,0,19,.06,9.57.11,12.07,2.55,12.11,11.64,0,8.82-3.43,12.43-12.26,12.63-3.66.08-7.33,0-11,0Z"/><path class="cls-8" d="M502.53,272.64c-4.16,0-8.32,0-12.48,0a12.16,12.16,0,0,1-6.63-1.84c-3.19-2-4-5.26-3.67-8.65.16-1.51,8.35-1,9.92.83a6.41,6.41,0,0,0,5.18,2.44c5.16,0,10.32.07,15.47-.05,3.09-.07,5.54-1.1,5.63-4.86.1-4-2.67-4.62-5.62-4.7-6.49-.17-13,.06-19.46-.25-7.52-.34-10.15-3.32-10.44-11-.26-7.07,2.94-11.34,9.95-11.74,8.45-.49,17-.21,25.43-.11a9.79,9.79,0,0,1,6.79,2.74c2.23,2.16,3.64,4.89,2.59,7.91-.52,1.5-8.14.15-9.64-1.54-2.27-2.57-22.32-3.08-24.37-.53a4.52,4.52,0,0,0-.7,4.7c.81,2.1,2.56,2.44,4.44,2.45,6.15,0,12.31,0,18.47,0,9.63.09,12.45,2.86,12.4,12-.06,8.42-3.88,12.11-12.78,12.27-3.49.06-7,0-10.48,0Z"/><path class="cls-8" d="M718.56,272.51c-4.66,0-9.34.3-14-.07-5.34-.43-8.53-3.94-8.74-8.56-.07-1.63.2-2.67,2-2.45,3.07.37,6.65-1.42,8.92,2.47.84,1.42,2.82,1.53,4.55,1.51,4.83,0,9.66,0,14.49,0,3.48,0,6.37-.79,6.23-5.23s-3.46-4.29-6.42-4.37c-6.32-.17-12.66.06-19-.26-6.92-.36-9.53-3.19-9.91-9.95-.43-7.74,2-11.92,8.78-12.66a149.66,149.66,0,0,1,27.92,0,8.3,8.3,0,0,1,5.33,2.5c2.12,2.22,3.79,4.85,2.61,8-.57,1.49-8.32.21-9.63-1.58a5,5,0,0,0-4.33-1.95c-5.33,0-10.66,0-16,0-3.16,0-5.12,1.39-5,4.8s2.59,3.83,5.28,3.84c6.66,0,13.32-.11,20,.1,7.41.24,9.88,3,10.15,10.6.29,8.49-2.77,12.85-9.89,13.39-4.47.34-9,.06-13.48.06Z"/><path class="cls-8" d="M1323,272.62c-4.17,0-8.33,0-12.49,0a12.05,12.05,0,0,1-6.63-1.91c-2.16-1.42-4.6-7.49-3.61-8.77s8.69-.49,10.09,1.12a6,6,0,0,0,4.74,2.33c5.33,0,10.67.05,16,0,3.24,0,5.52-1.43,5.54-5,0-3.9-2.82-4.5-5.81-4.56-6.32-.13-12.66.06-19-.21-7.86-.34-10.68-3.44-10.83-11.25-.14-7.18,3.32-11.28,10.74-11.62,8.14-.38,16.32-.33,24.47,0,5.9.23,9.45,3.82,9.93,8.65.18,1.78-.24,2.65-2,2.4-3-.44-6.83,1.78-8.59-2.72a2.29,2.29,0,0,0-1.69-.91,115.35,115.35,0,0,0-19.93,0c-2.29.2-3.2,2.13-3.09,4.42.12,2.74,1.86,3.83,4.27,3.87,6.33.09,12.67,0,19,.05,9.49.1,12.16,2.68,12.24,11.63.08,8.64-3.62,12.45-12.39,12.64-3.66.08-7.33,0-11,0Z"/><path class="cls-3" d="M1446.92,330.54l-27.12,0c-5.35-.93-8.25-4.34-8.57-9.52a107,107,0,0,1,.08-16.41c.59-6.56,3.82-9.65,10.31-9.93,7.81-.32,15.64-.2,23.45,0,3.15.08,6.34.8,8.3,3.76,1.32,2,2.69,5.18,1.26,6.4-2,1.66-6.39,1.85-7.84,0-3-3.83-6.7-3-10.36-3.12-3.49-.14-7-.16-10.48,0-3.86.2-6.12,2.12-6.09,6.3.14,17.53-1.92,15.46,14.78,15.57,2.66,0,5.32,0,8-.09,3.15-.08,3.64-2.18,3.71-4.78.08-3.06-2.08-2.35-3.77-2.39-2.33-.07-4.67-.12-7,0s-3.65-.28-3.67-3.17,1-3.7,3.76-3.61c5.48.18,11,.08,16.46,0,1.66,0,3,.11,2.92,2.3-.13,3.81.16,7.67-.34,11.44C1454.14,327.65,1451.17,329.94,1446.92,330.54Z"/><path class="cls-3" d="M1773.88,330.54l-27.11,0c-5.35-.93-8.25-4.34-8.57-9.52a108.3,108.3,0,0,1,.07-16.41c.6-6.56,3.83-9.65,10.32-9.93,7.8-.32,15.63-.2,23.44,0,3.15.08,6.35.8,8.31,3.76,1.31,2,2.69,5.18,1.26,6.4-2,1.66-6.39,1.85-7.84,0-3-3.83-6.7-3-10.36-3.12-3.49-.14-7-.16-10.48,0-3.86.2-6.12,2.12-6.09,6.3.13,17.53-1.92,15.46,14.78,15.57,2.66,0,5.32,0,8-.09,3.14-.08,3.64-2.18,3.7-4.78.08-3.06-2.08-2.35-3.77-2.39-2.32-.07-4.66-.12-7,0s-3.66-.28-3.67-3.17,1-3.7,3.75-3.61c5.49.18,11,.08,16.47,0,1.65,0,3,.11,2.91,2.3-.12,3.81.16,7.67-.33,11.44C1781.11,327.65,1778.14,329.94,1773.88,330.54Z"/><path class="cls-3" d="M539,330.54l-27.11,0c-5.36-.93-8.25-4.34-8.58-9.52a108.29,108.29,0,0,1,.08-16.41c.59-6.56,3.83-9.65,10.32-9.93,7.8-.32,15.63-.2,23.44,0,3.15.08,6.35.81,8.3,3.76,1.32,2,2.7,5.18,1.26,6.4-2,1.66-6.39,1.85-7.83,0-3-3.83-6.71-3-10.37-3.12-3.48-.14-7-.16-10.47,0-3.87.2-6.13,2.12-6.09,6.3.13,17.53-1.93,15.46,14.77,15.57,2.66,0,5.33,0,8-.09,3.15-.08,3.64-2.18,3.71-4.78.08-3.06-2.08-2.35-3.77-2.39-2.33-.07-4.66-.12-7,0s-3.66-.28-3.67-3.17,1-3.7,3.75-3.61c5.48.18,11,.08,16.47,0,1.65,0,3,.11,2.91,2.3-.13,3.81.16,7.67-.33,11.43C546.24,327.65,543.26,329.94,539,330.54Z"/><path class="cls-2" d="M1638.11,272.72c-5.66,0-11.32-.13-17,0-2.63.09-3.38-.75-3.35-3.36q.2-17,0-33.9c0-2.39.71-3.12,3.1-3.09,11.65.1,23.3.16,34.95,0,3.42-.06,3.07,1.8,3.21,4.05.15,2.6-.71,3.44-3.36,3.39-8.15-.16-16.32.19-24.46-.16-4.21-.18-3.57,2.28-3.56,4.74s-.72,5,3.5,4.81c7-.32,14-.23,21,0,2.26.08,5.86-2,6,3.26s-3.32,3.48-5.73,3.53c-7,.14-14,.33-21-.05-4.54-.25-3.62,2.52-3.77,5.07-.16,2.8,0,4.64,3.85,4.49,8-.33,16,0,24-.16,2.86-.07,3.67.86,3.63,3.65,0,2.61-.43,3.91-3.5,3.79C1649.76,272.55,1643.93,272.72,1638.11,272.72Z"/><path class="cls-7" d="M980.52,272.73a33.49,33.49,0,0,0-5,0c-4.93.95-7.89-1.14-9.24-5.77-1.05-3.57-3.27-4.75-7-4.5-5.3.35-10.64.15-16,.06-2,0-3.67.12-4.28,2.35-2.1,7.68-7.39,9.28-14.93,7.27,2.44-4.68,4.9-9.44,7.4-14.18,3.79-7.18,7.78-14.26,11.32-21.56,1.54-3.19,3.63-3.69,6.89-4.15,7.65-1.08,11.46,2,14.51,8.9C968.83,251.71,974.72,261.7,980.52,272.73Zm-28.21-33.32c-2.66,5-4.9,9.16-7.12,13.36-.58,1.1-1.07,2.33.92,2.36,4.5.05,9,0,14.08,0C957.38,249.54,955,244.85,952.31,239.41Z"/><path class="cls-7" d="M405.12,252.71c0-5.48.1-11-.05-16.45-.06-2.57.34-3.94,3.45-3.87,8.81.19,17.64-.1,26.46.15,8.39.24,11.95,4.54,12,13.79,0,9.62-3.52,14-12,14.34-5.48.22-11,.22-16.47,0-2.88-.11-4,.87-3.57,3.66a18.8,18.8,0,0,1,0,2.49c0,5.68-2.57,7.45-8.21,5.9-1.93-.53-1.61-1.82-1.62-3.08C405.1,264,405.12,258.36,405.12,252.71Zm19.74,0v0c2.48,0,5,.09,7.44,0,3.92-.18,4.82-2.77,4.83-6.14s-1-5.92-4.92-6c-3.63-.1-7.31.27-10.91-.15-5.05-.58-6.68,1-6.54,6.28.12,4.75.92,7.13,6.14,6.13A21.79,21.79,0,0,1,424.86,252.75Z"/><path class="cls-7" d="M316.7,272.09c5.9-5.85,11.4-11.53,17.17-16.92,2.43-2.28,2.85-3.65.19-6.21-5.2-5-10-10.46-15.28-16.1,7.67-1,13.63-.83,18.63,6.08,6.4,8.84,7,8.4,14.11.36,6.61-7.48,6.61-7.48,18.69-6.52-5.33,5.74-10.2,11.25-15.38,16.46-2.2,2.21-2.61,3.41,0,5.75,5.91,5.31,11.45,11,17.92,17.37-7.81.4-14.55,2.24-19.32-5.26-2.27-3.56-5.65-8.5-8.88-8.78s-6,5.37-8.93,8.5C329.43,273.52,328.33,273.92,316.7,272.09Z"/><path class="cls-7" d="M823,248.69c0,4.32.21,8.66-.05,13-.42,7-3.72,10.56-10.54,10.85-8.15.35-16.33.37-24.47,0-7.4-.33-11.49-4.89-11.76-12.86s.08-16-.13-23.94c-.12-4.86,3.3-3,5.52-3.21s4.62-.75,4.47,3.17c-.29,7.14-.14,14.3-.07,21.45,0,5.76,1.76,7.49,7.39,7.59,4.33.08,8.66-.08,13,0,4.86.13,7-2.27,7-6.94,0-7.15.26-14.32-.09-21.45-.2-4.2,2.08-4,4.93-3.94,2.64.08,5.37-.6,5,3.8-.39,4.12-.08,8.31-.08,12.47Z"/><path class="cls-4" d="M1819.92,330.61h-25.21a7.6,7.6,0,0,1-5-1.95c-2.13-2.05-4.18-5.49-2.28-7.31,1.67-1.61,5.94-2.05,8.45.71a6,6,0,0,0,4.74,2.24c4.66,0,9.33.08,14-.05,2.86-.08,4.71-1.45,4.66-4.63s-2.25-3.84-4.7-3.91c-5.83-.15-11.67.05-17.49-.22-6.57-.32-8.94-2.87-9.25-9.29-.32-6.72,1.88-10,8.19-10.94,7.76-1.17,15.6-.77,23.41-.21a8.71,8.71,0,0,1,5.52,2.06c2.16,2,4.42,5.22,2.35,7.21-1.6,1.54-6,2.33-8.29-1a4.06,4.06,0,0,0-3.81-1.78h-14c-2.69,0-4.54.84-4.53,4s2.07,3.45,4.39,3.47c5.83.05,11.67-.16,17.49.12,6.9.34,8.89,2.33,9.38,8.44C1828.56,325.75,1826.62,328.92,1819.92,330.61Z"/><path class="cls-4" d="M1557,330.61h-25.22a7.6,7.6,0,0,1-5-1.95c-2.14-2.05-4.19-5.49-2.29-7.32,1.68-1.6,6-2,8.46.72a6,6,0,0,0,4.74,2.24c4.66,0,9.33.08,14-.05,2.86-.08,4.7-1.45,4.66-4.63s-2.25-3.84-4.71-3.91c-5.82-.15-11.66.05-17.48-.22-6.57-.32-8.94-2.87-9.25-9.29-.32-6.72,1.88-10,8.19-10.94,7.76-1.17,15.6-.77,23.4-.21a8.75,8.75,0,0,1,5.53,2.06c2.15,2,4.42,5.22,2.35,7.21-1.6,1.54-6,2.33-8.29-1a4.06,4.06,0,0,0-3.81-1.78h-14c-2.7,0-4.54.84-4.53,4s2.07,3.45,4.39,3.47c5.83.05,11.67-.16,17.49.12,6.9.34,8.89,2.33,9.37,8.44C1565.59,325.75,1563.65,328.92,1557,330.61Z"/><path class="cls-4" d="M1194,330.58l-25.14-.06c-5.5-.83-8.11-4.33-8.28-9.57a153.62,153.62,0,0,1,.19-16.9c.5-6.26,2.86-8.87,9-9.25a212.93,212.93,0,0,1,23.43,0c5.66.28,8.32,3,9.13,8.73a76.7,76.7,0,0,1,.07,18.85C1201.82,327.27,1199.07,330.17,1194,330.58Zm-12.23-6.94c12.14,0,12.14,0,12.14-12.28,0-1.16,0-2.33,0-3.49.16-4.22-2.12-6.07-6.09-6.17-3.16-.08-6.33,0-9.49,0-8.24,0-9.24,1-9.25,9.08C1169,323.64,1169,323.64,1181.74,323.64Z"/><path class="cls-4" d="M996,330.58l-25.14-.06c-5.5-.83-8.11-4.33-8.28-9.57a153.64,153.64,0,0,1,.19-16.9c.5-6.26,2.86-8.87,9-9.25a212.93,212.93,0,0,1,23.43,0c5.66.28,8.32,3,9.13,8.73a76.21,76.21,0,0,1,.07,18.85C1003.84,327.27,1001.09,330.17,996,330.58Zm-12.44-6.94h4.5c7.28,0,7.83-.61,7.85-8.08,0-14.28,1.34-14-15.37-13.89-8.54.06-9.45.92-9.46,9.38C971.05,323.64,971.05,323.64,983.55,323.64Z"/><path class="cls-4" d="M877,330.58l-25.14-.06c-5.49-.83-8.1-4.33-8.27-9.57a148.85,148.85,0,0,1,.19-16.9c.49-6.26,2.85-8.87,9-9.25a212.94,212.94,0,0,1,23.43,0c5.67.28,8.32,3,9.13,8.73a76.21,76.21,0,0,1,.07,18.85C884.85,327.27,882.1,330.17,877,330.58Zm-12.37-6.94c12.28,0,12.28,0,12.28-12.13,0-1.33,0-2.66,0-4,0-3.67-1.89-5.58-5.44-5.75-3.33-.16-6.66-.09-10-.09-8.49,0-9.39.92-9.4,9.44C852.07,323.64,852.07,323.64,864.63,323.64Z"/><path class="cls-4" d="M685.9,330.44l-36.69-.17c0-10.65,0-21.29-.18-31.94,0-2.78.74-3.76,3.64-3.71,10,.15,20,.17,30,0,3.07-.06,3.44,1.2,3.54,3.8.12,2.92-1.23,3.18-3.56,3.15-6.83-.11-13.66.08-20.49-.1-2.95-.07-4.35.31-4.37,3.9s1.29,4.33,4.58,4.2c6.49-.25,13,0,19.5-.1,2.11,0,3.36.18,3.33,2.86s-.67,3.47-3.35,3.4c-6.66-.18-13.34.17-20-.15-3.61-.17-4.09,1.34-4,4.33.11,2.69-.12,4.74,3.81,4.5,6.14-.38,12.36.31,18.48-.23C685.46,323.71,687,325.55,685.9,330.44Z"/><path class="cls-4" d="M589.91,330.44l-36.69-.17c0-10.65,0-21.29-.18-31.94,0-2.78.74-3.76,3.64-3.71,10,.15,20,.17,30,0,3.07-.06,3.44,1.2,3.54,3.8.11,2.92-1.23,3.18-3.56,3.15-6.83-.11-13.66.08-20.49-.1-2.95-.07-4.35.31-4.37,3.9s1.29,4.33,4.58,4.2c6.49-.25,13,0,19.5-.1,2.11,0,3.36.18,3.33,2.86s-.67,3.47-3.35,3.4c-6.66-.18-13.34.17-20-.15-3.61-.17-4.09,1.34-4,4.33.11,2.69-.12,4.74,3.81,4.5,6.14-.38,12.36.31,18.48-.23C589.47,323.71,591.05,325.55,589.91,330.44Z"/><path class="cls-4" d="M407.93,330.44l-36.69-.17c0-10.65,0-21.29-.18-31.94,0-2.78.74-3.76,3.63-3.71,10,.15,20,.17,30,0,3.07-.06,3.43,1.2,3.54,3.8.11,2.92-1.23,3.18-3.56,3.15-6.83-.11-13.66.08-20.49-.1-2.95-.07-4.35.31-4.37,3.9s1.29,4.33,4.58,4.2c6.49-.25,13,0,19.5-.1,2.11,0,3.36.18,3.33,2.86s-.67,3.47-3.35,3.4c-6.66-.18-13.34.17-20-.15-3.61-.17-4.09,1.33-4,4.33.11,2.69-.12,4.74,3.81,4.5,6.14-.38,12.36.31,18.48-.23C407.49,323.71,409.07,325.55,407.93,330.44Z"/><path class="cls-4" d="M1107.86,330.44l-36.69-.17c0-10.65,0-21.29-.18-31.94,0-2.78.74-3.76,3.63-3.71,10,.15,20,.17,30,0,3.08-.06,3.44,1.21,3.55,3.8.11,2.92-1.24,3.18-3.56,3.15-6.83-.11-13.67.08-20.49-.1-2.95-.07-4.36.31-4.37,3.9s1.29,4.33,4.58,4.2c6.49-.25,13,0,19.49-.1,2.12,0,3.37.18,3.34,2.86s-.67,3.47-3.36,3.4c-6.66-.18-13.33.17-20-.15-3.61-.17-4.1,1.33-4,4.33.11,2.69-.12,4.74,3.81,4.5,6.14-.38,12.36.31,18.48-.23C1107.42,323.71,1109,325.55,1107.86,330.44Z"/><path class="cls-4" d="M1263.84,330.44l-36.69-.17c0-10.65,0-21.29-.18-31.94,0-2.78.74-3.76,3.64-3.71,10,.15,20,.17,30,0,3.07-.06,3.44,1.21,3.54,3.8.12,2.92-1.23,3.18-3.56,3.15-6.83-.11-13.66.08-20.49-.1-2.95-.07-4.35.31-4.37,3.9s1.29,4.33,4.59,4.2c6.48-.25,13,0,19.49-.1,2.11,0,3.36.18,3.34,2.86s-.68,3.47-3.36,3.4c-6.66-.18-13.34.17-20-.15-3.6-.17-4.09,1.33-4,4.33.11,2.69-.12,4.74,3.81,4.5,6.15-.38,12.36.31,18.48-.23C1263.4,323.71,1265,325.55,1263.84,330.44Z"/><path class="cls-4" d="M1359.83,330.44l-36.69-.17c0-10.65,0-21.29-.18-31.94,0-2.78.74-3.76,3.64-3.71,10,.15,20,.17,30,0,3.07-.06,3.44,1.21,3.54,3.8.12,2.92-1.23,3.18-3.56,3.15-6.83-.11-13.66.08-20.49-.1-2.95-.07-4.35.31-4.37,3.9s1.29,4.33,4.59,4.2c6.48-.25,13,0,19.49-.1,2.11,0,3.36.18,3.34,2.86s-.68,3.47-3.36,3.4c-6.66-.18-13.34.17-20-.15-3.6-.17-4.09,1.33-4,4.33.11,2.69-.12,4.74,3.81,4.5,6.15-.38,12.36.31,18.48-.23C1359.39,323.71,1361,325.55,1359.83,330.44Z"/><path class="cls-9" d="M1906.28,43.26q-.08,14.06-.14,28.1c-6.9.86-6.9.86-6.9-5.89a83,83,0,0,0-1.1-16.29c-2.45,5.77-5.13,11.45-7.26,17.32-1.43,4-3.39,5.76-7.9,5.41-3.11-.24-4.73-1-5.86-4A105.56,105.56,0,0,0,1868,49.31c0,6.11-.17,12.22.07,18.31.13,3.25-.82,4.4-4.16,4.21-2.53-.14-3-1.16-3-3.36.08-7.49.14-15,0-22.46-.06-2.73,1-3.25,3.51-3.33,9.39-.29,9.39-.38,12.9,8.16l6.14,14.84c3.45-5.85,5.55-11.77,7.6-17.6,1.55-4.38,3.85-6.13,8.35-5.37C1901.66,43.09,1904.05,42.25,1906.28,43.26Z"/><path class="cls-4" d="M1147.93,330.52l-26.14.06c-5.34-.5-8-3.66-8.44-8.79a78.78,78.78,0,0,1,.1-17.9c.87-6.16,3.21-8.71,9.34-9.08a219.8,219.8,0,0,1,23,0c4.47.19,8,2.56,9,7.26.32,1.5,2,4.1-.56,4.7-2.32.53-6,1.68-7.29-.93-2-4-5.17-4.15-8.73-4.16h-1.5c-17-.09-14.67-1-14.68,16.86,0,3.07,1.66,5,5,5q7.5,0,15,0c2.19,0,4-.81,4.44-3.16a2.18,2.18,0,0,1,2.86-1.91c2,.34,5.33-1.18,5.83,1,.77,3.27.15,7.06-3,9.44C1150.92,329.75,1149.32,330,1147.93,330.52Z"/><path class="cls-7" d="M1429.27,232.45c-5.36,6.94-9.8,13.33-14.92,19.13-4.35,4.92-6.78,10.11-5.63,16.65.81,4.6-1.93,4.45-5.23,4.6-3.59.17-5.35-.64-4.66-4.56,1.16-6.55-1.33-11.7-5.67-16.61-5.12-5.81-9.56-12.21-14.54-18.68,7.48-1.58,13.28-.94,16.82,6.49,1.61,3.4,4.37,6.24,6.48,9.43,1.33,2,2.23,1.89,3.53-.06,2.39-3.59,5.38-6.85,7.39-10.62,2.66-5,6.5-6.58,11.78-5.79A42.08,42.08,0,0,0,1429.27,232.45Z"/><path class="cls-9" d="M1562.81,232.43c6,0,12,.21,18-.07,3.45-.17,3.65,1.48,3.71,4.17.07,2.95-.7,4.48-3.9,3.95a3.64,3.64,0,0,0-1,0c-3.93.35-9.28-1.79-11.42.91-2,2.5-.7,7.61-.75,11.57-.06,5.48-.22,11,0,16.45.21,4.28-2.64,3.35-5,3.31s-5.09,1.14-5-3.24c.27-8.47,0-17,.14-25.42.06-2.87-.88-3.81-3.69-3.63-3.15.21-6.34-.18-9.48.11s-3.89-1.12-3.79-4c.09-2.59,0-4.35,3.59-4.17C1550.48,232.66,1556.65,232.43,1562.81,232.43Z"/><path class="cls-9" d="M1023.88,256.15c0-4.15-.17-8.31,0-12.45.15-2.73-.91-3.44-3.43-3.27-2.82.18-5.69-.24-8.47.1-4.35.54-5.45-1.31-5.08-5.31.2-2.18.93-2.82,3-2.81,12.64.05,25.27.1,37.91,0,3.13,0,3,1.76,2.91,3.85s.59,4.49-3,4.28-7,.14-10.47-.09c-2.9-.2-3.65.88-3.59,3.66.16,8.29-.21,16.61.16,24.89.2,4.47-2.42,3.81-5,3.77s-5.47.95-5-3.65C1024.2,264.81,1023.88,260.46,1023.88,256.15Z"/><path class="cls-9" d="M857.34,252.31c0-5,.23-10-.07-14.94-.23-3.81.79-5.21,4.88-5.08,3.65.11,5.26.65,5.06,4.83-.38,7.79,0,15.61-.17,23.41-.08,3.15.67,4.42,4.09,4.26,5.81-.29,11.65.15,17.46-.16,3.82-.2,3.23,2.08,3.38,4.4.18,2.61-.37,3.85-3.43,3.79q-13.72-.3-27.45,0c-3.26.08-3.9-1.18-3.8-4.07C857.48,263.28,857.34,257.79,857.34,252.31Z"/><path class="cls-7" d="M1094.73,252.91c0,5.47-.22,11,.06,16.42.25,4.75-3,3.2-5.36,3.37s-4.79.69-4.66-3.51c.33-11.11.3-22.23,0-33.34-.11-4.26,2.44-3.43,4.78-3.37s5.52-1.17,5.24,3.51C1094.47,241.61,1094.73,247.27,1094.73,252.91Z"/><path class="cls-7" d="M572,253.1c0,5.47-.23,11,.07,16.42.22,3.91-2.25,3.38-4.45,3.15s-5.6,1.68-5.52-3.17q.26-16.92,0-33.84c-.07-4.86,3.35-2.92,5.54-3.15s4.64-.72,4.44,3.17C571.72,241.47,572,247.29,572,253.1Z"/><path class="cls-9" d="M1843.61,42.74c4.16,0,8.32.11,12.48,0,2.23-.07,2.8.79,2.8,2.89s-.65,2.93-2.84,2.95c-3,0-6.83-1.37-8.63.61-2.12,2.35-.56,6.35-.72,9.63a76.69,76.69,0,0,0,0,9c.19,2.89-.53,4.13-3.8,4.11s-3.37-1.6-3.33-4c.1-5.15-.13-10.31.09-15.45.13-3.06-.88-4.27-4-3.94-1.64.18-3.33-.08-5,0-2.37.19-3.17-.76-3.18-3.14s1.13-2.69,3.07-2.65C1835,42.8,1839.28,42.74,1843.61,42.74Z"/><path class="cls-10" d="M170.57,66.46l1.1-.31-.39,1Z"/><path class="cls-10" d="M184.68,158.45c.3-.51.65-.79,1.08-.16,0,.05-.39.41-.6.63Z"/></g></g></svg>