<?xml version="1.0" standalone="no"?>
<!DOCTYPE svg PUBLIC "-//W3C//DTD SVG 20010904//EN"
 "http://www.w3.org/TR/2001/REC-SVG-20010904/DTD/svg10.dtd">
<svg version="1.0" xmlns="http://www.w3.org/2000/svg"
 width="316.000000pt" height="316.000000pt" viewBox="0 0 316.000000 316.000000"
 preserveAspectRatio="xMidYMid meet">
<metadata>
Created by potrace 1.11, written by Peter Selinger 2001-2013
</metadata>
<g transform="translate(0.000000,316.000000) scale(0.100000,-0.100000)"
fill="#000000" stroke="none">
<path d="M1530 3133 c-131 -77 -366 -278 -620 -531 -328 -326 -446 -483 -530
-712 -32 -88 -58 -201 -66 -295 l-6 -64 343 -1 c188 0 345 -2 347 -4 2 -3 4
-90 3 -195 l0 -191 254 0 255 0 0 78 0 79 -82 50 c-190 117 -408 301 -408 345
0 19 2 19 33 -6 186 -151 299 -223 436 -277 l23 -9 -5 173 c-3 95 -9 180 -12
188 -4 7 -52 43 -108 79 -223 143 -435 308 -463 362 -13 26 -13 28 3 28 10 0
56 -28 103 -62 185 -133 411 -268 449 -268 9 0 11 52 11 181 l-2 182 -91 66
c-51 37 -105 78 -121 91 -67 57 -118 105 -127 121 -20 38 12 26 102 -38 121
-85 200 -133 220 -133 14 0 17 14 18 98 1 53 4 115 5 137 2 22 7 83 11 135 7
98 8 109 20 195 19 136 42 123 39 -22 -8 -349 -3 -586 12 -602 8 -8 60 22 200
114 78 51 152 99 165 106 l23 12 -18 -28 c-34 -51 -119 -125 -272 -233 l-101
-72 3 -123 c4 -147 13 -247 23 -247 14 0 181 101 351 211 238 156 230 151 230
138 0 -21 -137 -146 -242 -220 -57 -41 -159 -108 -227 -149 l-124 -74 7 -171
c9 -200 9 -205 14 -205 9 0 61 31 220 134 208 134 252 159 260 151 15 -14
-160 -160 -370 -307 l-103 -73 -2 -67 -1 -68 274 0 274 0 1 28 c0 15 0 102 0
195 l0 167 349 0 349 0 -3 28 c-5 37 -18 123 -22 145 -9 53 -48 182 -76 252
-77 194 -190 338 -528 675 -276 277 -497 466 -595 511 -51 24 -52 24 -105 -8z"/>
<path d="M310 661 l0 -660 1265 0 1265 0 0 660 0 659 -265 0 -265 0 -1 -22 c0
-13 -1 -105 -1 -205 l0 -183 -737 0 -738 0 1 205 1 205 -262 0 -263 0 0 -659z"/>
</g>
</svg>
