<svg xmlns="http://www.w3.org/2000/svg" width="16" height="9"><path d="M13.77 5.72c.53.52 1.09 1 1.57 1.57a4.423 4.423 0 01.56.8.577.577 0 01-.36.9h-2.327a1.8 1.8 0 01-1.484-.6c-.322-.33-.621-.67-.932-1.01a2.045 2.045 0 00-.419-.37.486.486 0 00-.776.19 2.4 2.4 0 00-.246 1.08.614.614 0 01-.742.71 5.955 5.955 0 01-3.335-.71 7.386 7.386 0 01-2.245-2.09A28.058 28.058 0 01.081.96C-.106.54.031.32.488.31q1.141-.015 2.283 0a.677.677 0 01.633.47A13.723 13.723 0 004.95 3.63a2.445 2.445 0 00.585.64.354.354 0 00.6-.18 1.929 1.929 0 00.134-.59 8.944 8.944 0 00-.037-2.1.889.889 0 00-.748-.8c-.223-.04-.19-.12-.082-.25A.856.856 0 016.117 0h2.634a.626.626 0 01.564.68v2.91a.836.836 0 00.372.74.518.518 0 00.526-.25 9.214 9.214 0 001.483-2.27c.178-.36.332-.73.48-1.1a.571.571 0 01.6-.41l2.533.01a1.77 1.77 0 01.23.01.438.438 0 01.41.67 6.33 6.33 0 01-1.01 1.74c-.42.58-.87 1.14-1.293 1.73a.779.779 0 00.123 1.26z" fill="#fff" fill-rule="evenodd"/></svg>